<?xml version="1.0" encoding="UTF-8"?>
<svg version="1.1" xmlns="http://www.w3.org/2000/svg" width="1435" height="589">
<path d="M0 0 C0.58620117 0.4021875 1.17240234 0.804375 1.77636719 1.21875 C12.63151089 8.7171763 22.81063909 16.87329951 32.5546875 25.77734375 C34.12590394 27.20549416 35.71336236 28.61608568 37.3203125 30.00390625 C50.294428 41.28667666 61.40820056 54.17280316 71.54492188 68.01855469 C72.8830932 69.84080275 74.24235818 71.64467206 75.609375 73.4453125 C120.12921378 132.89863275 136.33509525 212.05193498 125.98828125 284.80078125 C121.06731682 316.77438023 111.11535194 347.41059664 96 376 C95.54705566 376.86206055 95.09411133 377.72412109 94.62744141 378.61230469 C89.60504532 388.09515045 84.23052 397.25209818 78 406 C77.48920898 406.71833008 76.97841797 407.43666016 76.45214844 408.17675781 C69.44873344 417.97993895 62.3038743 427.26066032 54 436 C52.82619437 437.34798324 51.65902568 438.70178771 50.5 440.0625 C43.91544251 447.62312131 36.6862647 454.57194071 29 461 C28.4829248 461.44150391 27.96584961 461.88300781 27.43310547 462.33789062 C-32.20249404 513.13550427 -108.84959106 536.30171457 -186.63671875 530.49609375 C-244.61879505 525.30195674 -300.0803059 503.13615882 -345 466 C-345.65162109 465.46407227 -346.30324219 464.92814453 -346.97460938 464.37597656 C-360.88051961 452.85859423 -373.9371387 440.29630789 -385 426 C-385.85196592 424.94743361 -386.70625585 423.89674533 -387.5625 422.84765625 C-435.67183714 363.50129081 -457.22840126 286.7707459 -449.6875 210.96484375 C-441.75901476 138.93597111 -406.90736663 67.96362613 -350.5625 21.3125 C-348.71373225 19.86806306 -346.85887465 18.43140676 -345 17 C-343.66388499 15.92631782 -342.32938458 14.85062473 -340.99609375 13.7734375 C-317.0133923 -5.46002996 -289.95237226 -20.60367979 -261 -31 C-260.18466797 -31.2995459 -259.36933594 -31.5990918 -258.52929688 -31.90771484 C-174.18390393 -62.66068737 -74.16215442 -50.96226978 0 0 Z " fill="#000000" transform="translate(1290,57)"/>
<path d="M0 0 C2.07268484 0.83781334 4.14562536 1.67499428 6.21875 2.51171875 C12.44741048 5.04640613 18.64914949 7.64113295 24.84570312 10.25292969 C28.49264219 11.78922837 32.145787 13.31026736 35.80026245 14.82853699 C38.83781614 16.09207341 41.87250545 17.36238371 44.90655518 18.63430786 C46.37884676 19.25031123 47.85210824 19.86400185 49.32635498 20.47531128 C51.38987486 21.33196905 53.44922022 22.19798649 55.5078125 23.06640625 C56.69004395 23.56084229 57.87227539 24.05527832 59.09033203 24.56469727 C61.67733687 25.84083432 63.33668141 26.66634982 65 29 C64.83382876 34.08009206 63.54283999 37.32247464 60.75 41.5 C60.01034691 42.64718577 59.27499643 43.79715219 58.54296875 44.94921875 C58.1361084 45.58907715 57.72924805 46.22893555 57.31005859 46.88818359 C46.31859002 64.60644732 36.83428792 83.33188217 27.1585083 101.79162598 C25.96315184 104.07024077 24.76470645 106.34721261 23.56591797 108.62402344 C21.5118148 112.52846387 19.46905699 116.43866951 17.4336853 120.35290527 C16.65800553 121.84182967 15.87948072 123.32927613 15.09780884 124.81506348 C3.47690858 145.88626003 3.47690858 145.88626003 2.8359375 169.01953125 C7.9681104 183.26217216 17.04647951 194.99865905 26 207 C70 266.01428571 70 266.01428571 70 288 C69.15844727 290.5378418 69.15844727 290.5378418 67 293 C63.59090353 294.39105857 60.06197774 295.08506974 56.46484375 295.83203125 C55.4065033 296.0699791 54.34816284 296.30792694 53.25775146 296.55308533 C49.82127907 297.32360152 46.37961931 298.06766145 42.9375 298.8125 C38.26261673 299.85275759 33.59159166 300.90946467 28.921875 301.97265625 C27.78332565 302.23082123 26.64477631 302.48898621 25.47172546 302.75497437 C16.08908373 304.91201076 6.94480881 307.48121389 -2.11157227 310.76489258 C-13.96396336 314.85743212 -24.11576038 313.78583577 -35.29492188 308.4765625 C-36.55115286 307.86013174 -37.80700969 307.2429379 -39.0625 306.625 C-40.35233428 306.01312847 -41.64334932 305.40373965 -42.93554688 304.796875 C-45.29598192 303.68643736 -47.64578117 302.56029532 -49.99243164 301.42041016 C-52.63187176 300.17385909 -55.27697914 299.04850681 -58 298 C-57.96519531 298.6290625 -57.93039062 299.258125 -57.89453125 299.90625 C-57.7084876 305.78877312 -57.94592088 310.8448063 -61 316 C-67.43331602 322.72573948 -74.70043873 323.25695563 -83.5 323.5 C-89.60021304 323.7265523 -95.52977246 324.12378396 -101.5625 325.0625 C-125.81446631 328.53458194 -150.16304442 323.87929588 -171.7109375 312.0546875 C-174.59564741 310.51565996 -176.7564338 309.42368789 -180 309 C-183.6826983 310.24095773 -186.89046151 311.98351423 -190.22265625 313.94140625 C-194.1851718 316.22533433 -198.24032598 317.56395927 -202.625 318.8125 C-203.60859497 319.10326416 -203.60859497 319.10326416 -204.61206055 319.39990234 C-215.94544237 322.57363867 -227.07649423 323.3729839 -238.77954102 323.37060547 C-241.16691393 323.37496243 -243.55240697 323.41136424 -245.93945312 323.44921875 C-265.27023093 323.59018752 -282.51423492 317.9761064 -299.87890625 309.76953125 C-301.75209962 308.90521239 -303.62703948 308.04481755 -305.5027771 307.18603516 C-306.74018452 306.60868997 -307.97081888 306.01657506 -309.1937561 305.40917969 C-316.17089596 301.76397834 -316.17089596 301.76397834 -323.76977539 301.57128906 C-326.41010056 302.83368898 -328.64291742 304.26834272 -331 306 C-331.7434668 306.49830322 -332.48693359 306.99660645 -333.25292969 307.51000977 C-335.43767357 308.99993904 -337.56525676 310.54757732 -339.6875 312.125 C-351.92628289 321.20646698 -351.92628289 321.20646698 -358.12573242 320.79003906 C-362.81644573 319.83351072 -366.9892993 318.24512191 -371.40625 316.4296875 C-372.73154724 315.89071335 -372.73154724 315.89071335 -374.08361816 315.34085083 C-375.94439672 314.58018168 -377.80338115 313.81511045 -379.66064453 313.04589844 C-382.48396072 311.88161431 -385.31744298 310.74510681 -388.15234375 309.609375 C-389.96683752 308.86365997 -391.78066307 308.11631653 -393.59375 307.3671875 C-394.43248657 307.0345993 -395.27122314 306.70201111 -396.13537598 306.35934448 C-413.26954925 299.12968896 -419.47559364 280.13499649 -426.30078125 264.23828125 C-428.65700076 258.75219581 -431.12554113 253.33023642 -433.6875 247.9375 C-434.02652344 247.22368164 -434.36554688 246.50986328 -434.71484375 245.77441406 C-435.47384196 244.18164345 -436.23643177 242.59058482 -437 241 C-439.40111851 241.3772458 -440.68599515 241.66731498 -442.37890625 243.4609375 C-449.66828557 255.24904268 -450.09578923 268.98634043 -451.5 282.4375 C-454.64854665 312.54198037 -454.64854665 312.54198037 -459.125 319.125 C-471.28954485 327.05839881 -490.75080914 323.18987505 -504.25048828 320.59082031 C-525.6072304 316.00164291 -546.08714549 307.83528335 -566 299 C-565.9175 299.9075 -565.835 300.815 -565.75 301.75 C-566 305 -566 305 -567.51293945 307.07250977 C-570.78534061 309.60864475 -574.06701722 310.30980653 -578.04296875 311.08984375 C-579.23082222 311.3373362 -579.23082222 311.3373362 -580.44267273 311.58982849 C-589.33707 313.3780596 -598.30870565 314.49516982 -607.3125 315.5625 C-610.743895 315.98109486 -614.17465409 316.40480395 -617.60546875 316.828125 C-618.43054932 316.92901932 -619.25562988 317.02991364 -620.10571289 317.13386536 C-626.46355693 317.91644512 -632.79373821 318.83869107 -639.125 319.8125 C-657.8384981 322.56623265 -673.13451421 319.42173913 -690.0625 311.4375 C-691.35290158 310.84046792 -692.64391629 310.2447592 -693.93554688 309.65039062 C-696.29191738 308.56604263 -698.6433669 307.47307168 -700.99243164 306.37280273 C-703.63644049 305.16594651 -706.29116538 304.05153206 -709 303 C-711.20447648 289.38515325 -710.01515753 275.4027267 -709.23828125 261.69921875 C-709.17562828 260.58737874 -709.17562828 260.58737874 -709.11170959 259.45307732 C-707.83084494 237.11015139 -705.72778596 214.83066313 -703.72924805 192.54309082 C-703.10459098 185.57226785 -702.4856844 178.60096777 -701.875 171.62890625 C-701.79045563 170.6661742 -701.70591125 169.70344215 -701.61880493 168.71153641 C-700.31601708 153.77719433 -699.30597951 138.84349271 -698.59521484 123.86927795 C-698.54380089 122.81480941 -698.54380089 122.81480941 -698.49134827 121.73903847 C-698.40147549 119.87068162 -698.31731951 118.00205218 -698.23364258 116.13340759 C-698.02511924 113.33687707 -697.62400747 110.73001264 -697 108 C-698.52173828 108.05607422 -698.52173828 108.05607422 -700.07421875 108.11328125 C-714.89131779 107.68572317 -744.53043549 97.46956451 -755 87 C-755.55742517 78.06321575 -753.99097965 69.50241543 -752.54995728 60.71679688 C-749.49548749 42.3082389 -749.49548749 42.3082389 -747.67041016 23.74658203 C-747.25765513 18.11361131 -746.09603475 13.09603475 -742 9 C-697.59310597 -5.97257435 -644.90573903 -2.40412602 -598.88861084 -2.02996826 C-595.07760922 -2.00059811 -591.26662382 -1.97824228 -587.45556641 -1.95751953 C-581.56838553 -1.92301865 -575.68185922 -1.86573151 -569.79507446 -1.78945923 C-567.62698695 -1.76349591 -565.45881904 -1.7434558 -563.2906189 -1.72982788 C-551.19876416 -1.64410032 -540.06229321 -1.53114661 -529 4 C-526.3535044 4.0783054 -523.73927984 4.09275651 -521.09375 4.0546875 C-519.86979271 4.0397097 -519.86979271 4.0397097 -518.62110901 4.02442932 C-515.91379873 3.98452182 -513.20700878 3.93170567 -510.5 3.875 C-509.57460419 3.85688263 -508.64920837 3.83876526 -507.69577026 3.82009888 C-491.24283943 3.46098645 -475.07516736 1.92914176 -458.7734375 -0.27197266 C-439.315512 -2.89302972 -425.29155083 -0.79792949 -407.29248047 7.03955078 C-404.94703644 8.02218942 -402.5798595 8.90500135 -400.19140625 9.77734375 C-389.22723359 13.93250584 -384.02517546 18.00742869 -379 29 C-378.10921795 30.68214645 -377.21838498 32.36426644 -376.32617188 34.0456543 C-370.17321836 45.87935058 -364.96941656 58.23512503 -359.5196228 70.40429688 C-356.72873246 76.62558696 -353.8723419 82.81588587 -351 89 C-350.77449463 88.15574463 -350.77449463 88.15574463 -350.54443359 87.29443359 C-341.53483613 53.87788427 -325.31337608 27.84436761 -295 10 C-272.59196178 -2.50367359 -244.66264847 -7.41296191 -219.5 -1.5 C-216.95753155 -0.72230377 -214.49264525 0.09169933 -212 1 C-211.23413574 1.26844727 -210.46827148 1.53689453 -209.67919922 1.81347656 C-195.49581792 6.82525246 -181.73687073 12.88885608 -168 19 C-167.87753906 18.22011719 -167.75507812 17.44023437 -167.62890625 16.63671875 C-166.73778693 12.90065951 -165.2379434 11.99787997 -162 10 C-156.65600606 8.48369141 -151.38092648 7.58335077 -145.875 6.875 C-138.68514168 5.89521398 -131.61063089 4.53235171 -124.5234375 2.9921875 C-123.68388519 2.8104599 -122.84433289 2.6287323 -121.9793396 2.4414978 C-117.71593134 1.51502669 -113.45734393 0.57059588 -109.20263672 -0.39501953 C-107.59871504 -0.7480951 -105.99471426 -1.10081155 -104.390625 -1.453125 C-103.66410736 -1.62377472 -102.93758972 -1.79442444 -102.1890564 -1.97024536 C-94.16525239 -3.70628557 -87.92920974 -2.34326631 -80.4375 0.94140625 C-79.76074219 1.22853989 -79.08398438 1.51567352 -78.38671875 1.81150818 C-76.25363322 2.7190725 -74.12686727 3.64047143 -72 4.5625 C-70.54336588 5.18517463 -69.08633763 5.80692812 -67.62890625 6.42773438 C-64.08129691 7.94122337 -60.53927941 9.4671386 -57 11 C-56.61763184 10.53239258 -56.23526367 10.06478516 -55.84130859 9.58300781 C-53.00442204 6.18157111 -50.37569168 3.17609796 -46.625 0.75 C-45.59246094 0.06164062 -45.59246094 0.06164062 -44.5390625 -0.640625 C-30.13040907 -8.35479638 -14.62252437 -6.09172457 0 0 Z M-735 18 C-735.13575439 18.98170166 -735.27150879 19.96340332 -735.41137695 20.97485352 C-735.9268758 24.69375409 -736.44835058 28.41179821 -736.97143555 32.12963867 C-737.19501611 33.7244707 -737.41707596 35.31951682 -737.63745117 36.91479492 C-738.93510984 46.29991168 -740.41322193 55.58267311 -742.40161133 64.84814453 C-743.20528486 69.08128419 -743.43619374 72.71076154 -743 77 C-739.37652599 79.41564934 -736.66344676 79.31270908 -732.47265625 79.34375 C-731.7284996 79.3583728 -730.98434296 79.37299561 -730.21763611 79.38806152 C-727.83264606 79.43453319 -725.44773404 79.46867558 -723.0625 79.5 C-695.30527868 79.87196565 -695.30527868 79.87196565 -688 85 C-682.68904292 92.96643562 -686.3915154 107.2401829 -687.06640625 116.56640625 C-687.18216694 118.20678649 -687.29762118 119.84718838 -687.41279602 121.48760986 C-687.72539983 125.92179668 -688.0437321 130.35555565 -688.3632431 134.78924942 C-688.5632812 137.57337275 -688.76137587 140.35762751 -688.95880127 143.14193726 C-690.54676726 165.53306621 -692.20932865 187.91764329 -693.95703125 210.296875 C-694.11921457 212.37837158 -694.28139011 214.45986877 -694.44355774 216.54136658 C-695.14893375 225.58337706 -695.85842543 234.62500036 -696.58442593 243.66538048 C-696.88354479 247.40363969 -697.17773663 251.14227682 -697.47093773 254.88100433 C-697.60709031 256.60192713 -697.74544565 258.3226775 -697.8863163 260.04322052 C-698.76047584 270.72730551 -699.17462285 281.27711221 -699 292 C-697.11474609 291.76216797 -697.11474609 291.76216797 -695.19140625 291.51953125 C-694.3190332 291.40996094 -693.44666016 291.30039062 -692.54785156 291.1875 C-690.51194694 290.93176321 -688.47614365 290.67521881 -686.44042969 290.41796875 C-680.09555615 289.62101061 -673.74871329 288.84900205 -667.39707947 288.108078 C-663.75878837 287.68312679 -660.12120024 287.25230217 -656.48361206 286.82138062 C-654.67691095 286.60897348 -652.86988505 286.39930893 -651.06253052 286.1925354 C-635.08653819 284.83453958 -635.08653819 284.83453958 -620 280 C-615.48164812 267.07729744 -618.99065939 249.04962864 -620.77084351 235.80488586 C-624.38073892 208.59244922 -624.67762344 180.98804409 -625.52801514 153.58508301 C-625.65771654 149.45928886 -625.79391303 145.33371955 -625.93017006 141.20813751 C-626.06321924 137.16015861 -626.19279768 133.11207417 -626.32133102 129.06394958 C-626.38184097 127.16659217 -626.4432053 125.26926175 -626.50554276 123.3719635 C-626.83231936 113.35070153 -627.07542557 103.32916899 -627.16162109 93.30273438 C-627.17617655 92.39943642 -627.190732 91.49613846 -627.20572853 90.56546783 C-627.20908903 89.73380852 -627.21244953 88.9021492 -627.21591187 88.04528809 C-627.22265615 87.31063072 -627.22940044 86.57597336 -627.23634911 85.81905365 C-627 84 -627 84 -625 82 C-621.9770442 81.55020516 -619.02556779 81.22180025 -615.984375 80.97265625 C-615.05582703 80.89072525 -614.12727905 80.80879425 -613.17059326 80.72438049 C-601.54584234 79.73432481 -589.89753754 79.09023807 -578.25 78.4375 C-574.91711197 78.24897838 -571.58430635 78.05925453 -568.25164795 77.86671448 C-566.20267533 77.7484833 -564.15356857 77.63254419 -562.10430908 77.51939392 C-556.37314078 77.19041587 -550.69995746 76.6845358 -545 76 C-544.525625 74.989375 -544.05125 73.97875 -543.5625 72.9375 C-543.29566406 72.36902344 -543.02882813 71.80054688 -542.75390625 71.21484375 C-540.51919966 64.64966947 -540.90900149 57.7948186 -541.05078125 50.95703125 C-541.07908272 49.38800301 -541.07908272 49.38800301 -541.10795593 47.78727722 C-541.14967222 45.58607297 -541.19439152 43.38492381 -541.24194336 41.18383789 C-541.31248071 37.81342163 -541.3666598 34.44299383 -541.41992188 31.07226562 C-541.46254665 28.92966747 -541.50613323 26.78708819 -541.55078125 24.64453125 C-541.56546951 23.63719437 -541.58015778 22.62985748 -541.59529114 21.59199524 C-541.61838852 20.65389511 -541.6414859 19.71579498 -541.6652832 18.74926758 C-541.68979301 17.51518913 -541.68979301 17.51518913 -541.71479797 16.25617981 C-542.02546611 13.79854235 -542.77250263 12.13530787 -544 10 C-564.22914761 8.67116812 -584.4869523 8.7559432 -604.75 8.75 C-605.66924759 8.74941086 -606.58849518 8.74882172 -607.53559875 8.74821472 C-671.92346641 7.39382349 -671.92346641 7.39382349 -735 18 Z M-277 14 C-278.55074219 14.53753906 -278.55074219 14.53753906 -280.1328125 15.0859375 C-304.57933444 24.27782975 -322.07878282 43.8874042 -333 67 C-340.13899395 83.11471935 -343.07460966 99.94967515 -337 117 C-327.67553765 139.86286442 -307.96156234 156.72240119 -287.875 170.109375 C-287.05501274 170.65751106 -287.05501274 170.65751106 -286.21846008 171.21672058 C-283.48141506 173.04438567 -280.73627684 174.85323957 -277.96948242 176.63598633 C-266.52242988 184.19166923 -257.82877056 193.0029452 -254.33984375 206.56640625 C-253.29094845 213.07363049 -254.57190076 218.38695839 -258 224 C-262.44950008 229.33138298 -268.01925039 233.11411807 -275 234 C-279.21380855 233.59264291 -283.00282599 232.33239134 -287 231 C-288.0078125 229.296875 -288.0078125 229.296875 -289 227 C-289.45117188 226.09765625 -289.90234375 225.1953125 -290.3671875 224.265625 C-290.86476563 223.27046875 -291.36234375 222.2753125 -291.875 221.25 C-292.40609375 220.19425781 -292.9371875 219.13851562 -293.484375 218.05078125 C-294.39124873 216.22534727 -295.28236408 214.39175683 -296.140625 212.54296875 C-297.94425491 208.68520478 -299.27277255 206.12165255 -303 204 C-306.10612784 203.599938 -306.10612784 203.599938 -309.4375 203.75 C-311.10619141 203.77320313 -311.10619141 203.77320313 -312.80859375 203.796875 C-315.87385956 203.91353516 -315.87385956 203.91353516 -318.32226562 204.49731445 C-321.26367009 205.04949824 -324.04369489 205.17710827 -327.03515625 205.24609375 C-328.17404297 205.27896484 -329.31292969 205.31183594 -330.48632812 205.34570312 C-332.87424954 205.40699876 -335.26227737 205.46427783 -337.65039062 205.51757812 C-338.78798828 205.55173828 -339.92558594 205.58589844 -341.09765625 205.62109375 C-342.13414307 205.6461499 -343.17062988 205.67120605 -344.23852539 205.69702148 C-347.0075768 206.0008313 -348.58172077 206.7017204 -351 208 C-351.15411346 207.43809967 -351.30822693 206.87619934 -351.4670105 206.29727173 C-353.628588 198.73956339 -356.45495838 191.49891782 -359.3828125 184.2109375 C-359.91537092 182.87684961 -360.44764664 181.54264884 -360.97966003 180.20834351 C-362.39594544 176.660567 -363.818365 173.11528386 -365.24283218 169.57078552 C-366.12887287 167.36536012 -367.01350084 165.15937263 -367.89779663 162.95324707 C-383.35898172 124.39438192 -399.64763122 86.26733355 -417.10766602 48.56860352 C-419.31656264 43.77540766 -421.4540664 38.96655681 -423.47265625 34.08984375 C-423.86807617 33.13851562 -424.26349609 32.1871875 -424.67089844 31.20703125 C-425.40364092 29.42939423 -426.12534865 27.64714552 -426.83300781 25.859375 C-429.40227414 19.62080456 -432.45284864 14.04795661 -438.44921875 10.5859375 C-450.27709943 7.86896644 -463.1004923 10.57759916 -474.90530396 12.2199707 C-487.87792352 14.00097608 -500.74147905 14.54704286 -513.82763672 14.67163086 C-514.54577545 14.68128372 -515.26391418 14.69093658 -516.0038147 14.70088196 C-517.94938879 14.72496871 -519.89511956 14.73528671 -521.84082031 14.74462891 C-524.95732235 14.99655017 -526.41838172 15.33402622 -529 17 C-530.03933334 18.75896975 -530.03933334 18.75896975 -530.58740234 20.89135742 C-530.82642273 21.70067719 -531.06544312 22.50999695 -531.31170654 23.34384155 C-532.54808636 28.11509233 -533.60419277 32.91186252 -534.6015625 37.73828125 C-534.83910751 38.86996735 -535.07665253 40.00165344 -535.32139587 41.16763306 C-536.09707291 44.88101845 -536.86247764 48.59639202 -537.625 52.3125 C-538.02366776 54.25033859 -538.02366776 54.25033859 -538.4303894 56.22732544 C-552.47588586 124.63208586 -561.99711408 193.85667244 -570.94776917 263.08699036 C-571.07280319 264.04868637 -571.19783722 265.01038239 -571.32666016 266.0012207 C-571.4406012 266.87976715 -571.55454224 267.7583136 -571.67193604 268.66348267 C-571.94482201 270.60701469 -572.28855442 272.54043832 -572.64990234 274.46948242 C-573.17242917 278.24632378 -572.13579068 280.96005793 -570 284 C-561.13357638 293.03693176 -542.06437609 292.88544749 -530.29541016 293.03417969 C-523.86326063 293.07822832 -517.43199709 293.05629188 -511 293 C-507.63936626 281.88019448 -506.822539 270.64602054 -505.84594727 259.13500977 C-503.11820782 227.50600427 -503.11820782 227.50600427 -494 217 C-486.65483983 210.96970865 -478.49468664 209.45826706 -469.3125 208.0625 C-468.03310547 207.84271484 -466.75371094 207.62292969 -465.43554688 207.39648438 C-457.95410385 206.18002117 -451.64100584 205.17949708 -444.625 208.6875 C-431.2449165 219.16407545 -424.37904106 240.96574091 -418 256 C-412.99544378 267.81545781 -412.99544378 267.81545781 -407.5625 279.4375 C-406.69818359 281.19900391 -406.69818359 281.19900391 -405.81640625 282.99609375 C-403.89024839 286.1815032 -401.73452532 288.4906157 -399 291 C-398.29617188 290.52691406 -397.59234375 290.05382812 -396.8671875 289.56640625 C-394.16336372 287.75562088 -391.4529849 285.95530558 -388.73974609 284.15869141 C-387.11772036 283.07840315 -385.50570438 281.98312713 -383.89453125 280.88671875 C-372.47542866 273.27861995 -360.26096409 267.13048205 -348 261 C-347.62488281 261.79664063 -347.24976563 262.59328125 -346.86328125 263.4140625 C-340.57666432 276.43068495 -332.63886535 284.60967488 -319 290 C-291.14779742 298.07747391 -257.96322675 296.56565204 -232 283.125 C-217.49228725 274.56633409 -206.09729728 262.69372252 -198 248 C-197.52949219 247.21496094 -197.05898438 246.42992187 -196.57421875 245.62109375 C-185.31161376 225.57156474 -184.54490354 199.52372989 -190.61816406 177.78759766 C-199.30020804 150.45874745 -215.19515806 137.85875799 -239.85449219 125.03564453 C-240.41555664 124.7467334 -240.97662109 124.45782227 -241.5546875 124.16015625 C-247.45257272 121.09585158 -253.04727645 117.79145854 -258.5 114 C-259.07588867 113.60876953 -259.65177734 113.21753906 -260.24511719 112.81445312 C-266.22579546 108.53199214 -270.26661894 103.23662914 -272 96 C-272.99308139 87.17725588 -272.62951414 79.18342361 -267 72 C-261.90527719 67.40497281 -255.57096734 65.06326598 -248.7421875 64.96875 C-243.50413281 65.32387235 -239.13222225 66.60691757 -235 70 C-233.00931001 72.7312897 -231.56915405 75.63901285 -230.125 78.6875 C-229.35769955 80.23353419 -228.58951765 81.77913133 -227.8203125 83.32421875 C-227.32942139 84.3464856 -227.32942139 84.3464856 -226.82861328 85.3894043 C-226.10562805 86.9961333 -226.10562805 86.9961333 -225 88 C-216.62472887 87.86491498 -209.27107102 85.3568751 -201.40234375 82.75390625 C-197.51973303 81.4722748 -193.61897538 80.28875306 -189.69140625 79.15234375 C-188.64106201 78.84570801 -187.59071777 78.53907227 -186.50854492 78.22314453 C-184.44229309 77.62266776 -182.37346268 77.03098423 -180.30200195 76.44873047 C-179.36445068 76.17303223 -178.42689941 75.89733398 -177.4609375 75.61328125 C-176.20482666 75.25423706 -176.20482666 75.25423706 -174.92333984 74.88793945 C-174.2886377 74.59491943 -173.65393555 74.30189941 -173 74 C-169.94450305 64.83350915 -171.57189045 52.03042184 -175.42529297 43.31298828 C-181.4576298 31.39090243 -190.44611681 23.52100498 -202 17 C-202.77730469 16.53851563 -203.55460937 16.07703125 -204.35546875 15.6015625 C-226.6226722 3.29305808 -253.92329693 5.51372855 -277 14 Z M-47.78930664 17.40917969 C-59.85455817 32.90809903 -68.81545114 50.03367763 -77.89477539 67.38378906 C-78.27553726 68.11117783 -78.65629913 68.83856659 -79.04859924 69.58799744 C-79.76626902 70.96096316 -80.48238243 72.33474398 -81.19664001 73.70948792 C-82.63786303 76.47112689 -84.10836109 79.1762692 -85.74023438 81.83081055 C-87.16740198 83.87017199 -87.16740198 83.87017199 -87 86 C-89.31 86 -91.62 86 -94 86 C-96.05032206 82.59426939 -96.29227372 79.86535694 -96.39477539 75.92138672 C-96.43143814 74.69265839 -96.46810089 73.46393005 -96.50587463 72.19796753 C-96.53655491 70.85854283 -96.56714652 69.5191161 -96.59765625 68.1796875 C-96.63632164 66.79685911 -96.67592299 65.41405661 -96.71641541 64.03128052 C-96.82103257 60.38897763 -96.91502562 56.74648304 -97.00616455 53.1038208 C-97.15296873 47.29575135 -97.3147262 41.48809262 -97.47863579 35.68048477 C-97.53382846 33.66565872 -97.58351808 31.6506843 -97.6330719 29.63571167 C-97.81897283 22.7143868 -98.16845961 15.87561352 -99 9 C-99.65093124 9.13347336 -100.30186249 9.26694672 -100.97251892 9.40446472 C-119.59901398 13.21853027 -138.2858924 16.6487117 -157 20 C-157.65077296 22.04009755 -158.29539824 24.08215669 -158.9375 26.125 C-159.29714844 27.26195312 -159.65679688 28.39890625 -160.02734375 29.5703125 C-161.56589653 34.99541027 -162.1207224 39.98699763 -162.05004883 45.62060547 C-162.03727905 46.9287471 -162.02450928 48.23688873 -162.01135254 49.58467102 C-162.00239456 50.2805514 -161.99343658 50.97643177 -161.98420715 51.69339943 C-161.93694408 55.47395093 -161.91078398 59.25467014 -161.88208008 63.03540039 C-161.87568575 63.83117713 -161.86929142 64.62695387 -161.86270332 65.44684505 C-161.47100049 116.45891678 -166.48985169 165.88201047 -173.02661133 216.42797852 C-176.44038223 242.86933849 -179.85130337 269.34231603 -181 296 C-171.85165871 297.97801974 -162.23523901 296.99486866 -152.96875 296.37890625 C-151.97041138 296.31468979 -150.97207275 296.25047333 -149.94348145 296.18431091 C-147.85608594 296.04903834 -145.76880534 295.91198139 -143.68164062 295.77319336 C-140.48080993 295.5612292 -137.2795263 295.35744016 -134.078125 295.15429688 C-132.04163477 295.02132098 -130.00517519 294.88787451 -127.96875 294.75390625 C-127.01254761 294.6934462 -126.05634521 294.63298615 -125.07116699 294.57069397 C-123.74333191 294.48071388 -123.74333191 294.48071388 -122.38867188 294.38891602 C-121.6113269 294.33784195 -120.83398193 294.28676788 -120.03308105 294.23414612 C-117.7999978 294.04756072 -117.7999978 294.04756072 -115 293 C-109.09401537 282.98656104 -112.07787786 268.52513685 -112.85586548 257.57168579 C-113.67331307 245.82228288 -114.23181695 234.09222477 -114.3125 222.3125 C-114.32990234 221.17554688 -114.34730469 220.03859375 -114.36523438 218.8671875 C-114.35976174 209.57465249 -113.64623967 199.25731984 -109 191 C-105.7734375 190.92578125 -105.7734375 190.92578125 -102 192 C-99.88912126 194.76606495 -98.83773208 197.9480975 -97.625 201.1875 C-96.77748381 203.28809541 -95.92558597 205.38692606 -95.0703125 207.484375 C-94.5949707 208.66580078 -94.11962891 209.84722656 -93.62988281 211.06445312 C-90.81632178 217.94419098 -87.68612701 224.689448 -84.62091064 231.45956421 C-78.89675189 244.11364856 -73.25494624 256.78312958 -68.13085938 269.69506836 C-65.91629723 275.18473782 -63.32160398 280.09659805 -60 285 C-55.11280662 283.55590985 -50.2370197 282.09252926 -45.3984375 280.4921875 C-26.27848855 274.27911749 -6.62908274 270.24463517 13 266 C15.2839139 258.08277864 8.82331993 249.49418437 5.06542969 242.66894531 C-1.55796891 230.90692557 -9.07135362 219.91134884 -17 209 C-18.10691782 207.4714606 -19.21369159 205.94281687 -20.3203125 204.4140625 C-20.85769043 203.6722876 -21.39506836 202.9305127 -21.94873047 202.16625977 C-24.63992393 198.44948138 -27.32562922 194.72890561 -30 191 C-30.56138672 190.21737793 -31.12277344 189.43475586 -31.70117188 188.62841797 C-52.06845301 160.05989622 -52.06845301 160.05989622 -52.375 143.6875 C-52.43107422 142.61532227 -52.43107422 142.61532227 -52.48828125 141.52148438 C-52.71518689 126.93649437 -44.38471239 113.05231584 -37.9375 100.4375 C-37.08303003 98.74803837 -36.22903033 97.05833882 -35.37548828 95.3684082 C-29.54914905 83.87015932 -23.51257041 72.50593621 -17.23632812 61.24658203 C-14.94569985 57.08418838 -12.77963045 52.85591586 -10.59594727 48.63671875 C-8.29059743 44.25294624 -5.82030568 39.99525366 -3.26171875 35.75390625 C-2.61058105 34.66835449 -1.95944336 33.58280273 -1.28857422 32.46435547 C0.01201967 30.30762565 1.32648732 28.1591917 2.65576172 26.02001953 C3.24760254 25.03759277 3.83944336 24.05516602 4.44921875 23.04296875 C4.98893311 22.16664795 5.52864746 21.29032715 6.0847168 20.38745117 C7.23622952 18.06374893 7.23622952 18.06374893 6.46142578 15.81640625 C4.57321996 13.46955505 3.00360786 12.88719978 0.16796875 11.89453125 C-0.79560547 11.55099609 -1.75917969 11.20746094 -2.75195312 10.85351562 C-3.76193359 10.50998047 -4.77191406 10.16644531 -5.8125 9.8125 C-7.31006836 9.27979492 -7.31006836 9.27979492 -8.83789062 8.73632812 C-24.75423858 3.14811002 -36.51982661 3.43665615 -47.78930664 17.40917969 Z M-218 103 C-219.21620026 103.982992 -219.21620026 103.982992 -219.01953125 105.85546875 C-218.29875135 113.97444234 -214.95437417 118.8111257 -208.78515625 124.01171875 C-198.44830992 131.39103822 -186.61324743 136.95254617 -175 142 C-174.66178803 139.14633646 -174.3293022 136.29219404 -174 133.4375 C-173.90460937 132.63763672 -173.80921875 131.83777344 -173.7109375 131.01367188 C-173.17285824 126.30547833 -172.89823297 121.73852735 -173 117 C-174.17046875 117.03996094 -175.3409375 117.07992187 -176.546875 117.12109375 C-189.92138067 117.09467352 -203.48782291 109.32881478 -215.30444336 103.74682617 C-216.84373586 102.93281802 -216.84373586 102.93281802 -218 103 Z M-573 110 C-573.10022706 111.4809967 -573.13081439 112.96678894 -573.1328125 114.45117188 C-573.13482666 115.39939819 -573.13684082 116.34762451 -573.13891602 117.32458496 C-573.13432373 118.36215942 -573.12973145 119.39973389 -573.125 120.46875 C-573.12234131 121.54209595 -573.11968262 122.61544189 -573.11694336 123.72131348 C-573.04850441 135.66044533 -572.54537909 147.57486537 -572 159.5 C-571.9031674 161.70310402 -571.80681152 163.90622905 -571.7109375 166.109375 C-571.47941575 171.40650315 -571.24215492 176.7033478 -571 182 C-570.67 182 -570.34 182 -570 182 C-569.83753281 180.91577507 -569.83753281 180.91577507 -569.67178345 179.80964661 C-568.64252799 172.94121749 -567.61302691 166.07282522 -566.58326149 159.20447254 C-566.05407381 155.6748276 -565.52497552 152.14516931 -564.99609375 148.61547852 C-564.48408111 145.19839403 -563.97181771 141.78134722 -563.45939255 138.36432457 C-563.17235534 136.44984286 -562.88556667 134.5353239 -562.5987854 132.62080383 C-561.4173446 124.74436658 -560.21690413 116.87103621 -559 109 C-559.98750244 108.9904126 -560.97500488 108.9808252 -561.99243164 108.97094727 C-564.34781901 108.94807943 -566.70320638 108.92521159 -569.05859375 108.90234375 C-571.88873341 108.66098208 -571.88873341 108.66098208 -573 110 Z M-322 157 C-319.96184845 164.34778219 -317.37071196 171.34103332 -314.4375 178.375 C-314.03853516 179.34566406 -313.63957031 180.31632812 -313.22851562 181.31640625 C-312.16745457 183.88491797 -311.10726405 186.45106149 -310 189 C-309.68635498 189.74572266 -309.37270996 190.49144531 -309.04956055 191.25976562 C-308.70320557 191.83404297 -308.35685059 192.40832031 -308 193 C-305.01952815 193.78991339 -305.01952815 193.78991339 -301.375 194.125 C-290.28178827 195.70394166 -280.3240516 200.58666173 -270.17626953 205.12963867 C-268.08114386 206.12377893 -268.08114386 206.12377893 -266 206 C-271.32035222 191.32405258 -285.45401548 182.82092201 -297.79150391 174.50146484 C-301.62049176 171.8982949 -305.40455097 169.2319462 -309.1875 166.5625 C-309.89390625 166.0665332 -310.6003125 165.57056641 -311.328125 165.05957031 C-314.98213039 162.48099714 -318.54172429 159.84048665 -322 157 Z " fill="#000000" transform="translate(770,140)"/>
<path d="M0 0 C1.60681641 0.54333984 1.60681641 0.54333984 3.24609375 1.09765625 C22.41374948 8.30078802 35.12462826 23.23198214 43.53125 41.2890625 C51.57788444 60.51677618 51.45463046 84.70814933 44.15429688 104.265625 C35.72441124 124.16803016 22.21712787 137.96069724 2.4453125 146.54296875 C-19.84727573 155.00819435 -44.16667807 153.76607348 -66.09765625 144.72265625 C-83.16846027 136.77096561 -96.00226262 122.90385159 -102.6875 105.375 C-110.46610446 82.08937117 -110.70930274 57.47288917 -100 35 C-89.59247477 16.90966644 -74.73347454 3.98604659 -54.5390625 -2.03125 C-36.88451252 -6.0285066 -17.14135382 -6.00242585 0 0 Z " fill="#FCFCFC" transform="translate(1041,221)"/>
<path d="M0 0 C14.85 0 29.7 0 45 0 C50.02445603 8.79279805 54.98164969 17.57320466 59.75 26.5 C60.97346029 28.78151715 62.19742669 31.06276296 63.421875 33.34375 C64.02451172 34.46652344 64.62714844 35.58929688 65.24804688 36.74609375 C67.8121049 41.50832414 70.40399057 46.25513231 73 51 C77.99497525 60.13074428 82.93412895 69.29077363 87.84179688 78.46875 C92.44589375 87.05135729 97.22163844 95.505135 102 104 C102.33 69.68 102.66 35.36 103 0 C114.55 0 126.1 0 138 0 C138 49.83 138 99.66 138 151 C122.82 151 107.64 151 92 151 C85.63215936 139.35151103 79.28558986 127.6930651 73 116 C68.19057329 107.05400546 63.35287814 98.12430563 58.48193359 89.21166992 C54.14751035 81.27873468 49.8400297 73.33135589 45.53881836 65.38037109 C45.03358643 64.44660645 44.52835449 63.5128418 44.0078125 62.55078125 C43.57098145 61.74294189 43.13415039 60.93510254 42.68408203 60.1027832 C40.13033567 55.3977147 37.56350482 50.69975884 35 46 C34.67 80.65 34.34 115.3 34 151 C22.78 151 11.56 151 0 151 C0 101.17 0 51.34 0 0 Z " fill="#FDFDFD" transform="translate(1108,219)"/>
<path d="M0 0 C38.28 0 76.56 0 116 0 C116 10.23 116 20.46 116 31 C89.27 31 62.54 31 35 31 C35 39.91 35 48.82 35 58 C51.17 58 67.34 58 84 58 C84 68.23 84 78.46 84 89 C67.83 89 51.66 89 35 89 C35 99.23 35 109.46 35 120 C61.73 120 88.46 120 116 120 C116 130.23 116 140.46 116 151 C77.72 151 39.44 151 0 151 C0 101.17 0 51.34 0 0 Z " fill="#FEFEFE" transform="translate(1266,219)"/>
<path d="M0 0 C10.76253314 7.58303306 16.92118735 17.95240554 19.5625 30.71875 C21.64515744 46.33868083 20.49694965 63.71315497 10.953125 76.80859375 C4.33548702 84.48733575 -3.84769782 90.85869603 -14.17114258 92.30395508 C-16.41485897 92.43640793 -18.62765656 92.46831191 -20.875 92.4375 C-21.66583984 92.42847656 -22.45667969 92.41945313 -23.27148438 92.41015625 C-34.36304069 92.08205762 -42.07462969 87.7059829 -50 80 C-61.04862483 67.05461555 -61.68656374 51.17917998 -61 35 C-59.66338768 21.51544282 -53.42787541 9.64837449 -43 1 C-29.63208959 -7.14920665 -13.78272953 -7.7516534 0 0 Z " fill="#010101" transform="translate(1032,251)"/>
<path d="M0 0 C6.9240594 3.84669967 11.15732254 11.18778756 14.6875 18.0625 C15.10531738 18.8663916 15.52313477 19.6702832 15.95361328 20.49853516 C21.15447673 30.81602962 25.04463417 41.65647592 28.8125 52.5625 C29.06821777 53.29919922 29.32393555 54.03589844 29.58740234 54.79492188 C31.56408898 60.57182792 33.01976431 65.41666258 32.8125 71.5625 C26.88507915 74.90007298 22.06518503 76.33792967 15.3125 76.875 C14.44898926 76.95274658 13.58547852 77.03049316 12.69580078 77.1105957 C-6.98430432 78.66409784 -6.98430432 78.66409784 -13.1875 75.5625 C-14.1088103 60.07083792 -12.19148231 45.57645795 -9.40966797 30.39355469 C-9.13858173 28.90697678 -8.86790373 27.42032436 -8.59765625 25.93359375 C-8.4009433 24.85913498 -8.4009433 24.85913498 -8.20025635 23.76296997 C-7.2249519 18.24995578 -6.72819939 12.78147375 -6.49389648 7.18383789 C-6.18011061 4.49928096 -5.64230388 2.82671444 -4.1875 0.5625 C-2.1875 -0.4375 -2.1875 -0.4375 0 0 Z " fill="#000000" transform="translate(288.1875,229.4375)"/>
<path d="M0 0 C5.77186957 3.64385705 10.07326072 8.3486884 12.2578125 14.90234375 C13.03432663 21.95461965 12.22782473 27.93073761 8.2578125 33.90234375 C3.02391162 39.62794722 -1.74074783 42.88486276 -9.5546875 43.27734375 C-15.83314445 43.10966983 -20.1548145 41.34682436 -24.72265625 37.03125 C-30.19212331 31.06558386 -32.20942968 26.57911911 -31.98046875 18.45703125 C-31.39102378 12.13740815 -29.53740311 8.30177032 -24.8046875 4.02734375 C-17.66979178 -1.88403421 -8.8748018 -3.55244915 0 0 Z " fill="#FBFBFB" transform="translate(907.7421875,330.09765625)"/>
</svg>
