<svg width="512" height="512" viewBox="0 0 512 512" fill="none" xmlns="http://www.w3.org/2000/svg">
  <defs>
    <linearGradient id="paint0_linear" x1="0" y1="0" x2="512" y2="512" gradientUnits="userSpaceOnUse">
      <stop stop-color="#6366F1"/>
      <stop offset="1" stop-color="#A855F7"/>
    </linearGradient>
    <filter id="filter0_d" x="120" y="120" width="272" height="272" filterUnits="userSpaceOnUse" color-interpolation-filters="sRGB">
      <feFlood flood-opacity="0" result="BackgroundImageFix"/>
      <feColorMatrix in="SourceAlpha" type="matrix" values="0 0 0 0 0 0 0 0 0 0 0 0 0 0 0 0 0 0 127 0"/>
      <feOffset dy="4"/>
      <feGaussianBlur stdDeviation="10"/>
      <feColorMatrix type="matrix" values="0 0 0 0 0 0 0 0 0 0 0 0 0 0 0 0 0 0 0.2 0"/>
      <feBlend mode="normal" in2="BackgroundImageFix" result="effect1_dropShadow"/>
      <feBlend mode="normal" in="SourceGraphic" in2="effect1_dropShadow" result="shape"/>
    </filter>
  </defs>
  <rect width="512" height="512" rx="128" fill="url(#paint0_linear)"/>
  <g filter="url(#filter0_d)">
    <path d="M160 180C160 168.954 168.954 160 180 160H332C343.046 160 352 168.954 352 180V220C352 231.046 343.046 240 332 240H286V332C286 343.046 277.046 352 266 352H246C234.954 352 226 343.046 226 332V240H180C168.954 240 160 231.046 160 220V180Z" fill="white"/>
    <path d="M330 280L360 310L420 250" stroke="#10B981" stroke-width="32" stroke-linecap="round" stroke-linejoin="round"/>
  </g>
</svg>
